Thaandavam (2012) - DVD Rip - 1CD MP3 Xvid - Team XDN

]Thaandavam is a 2012 Tamil action drama film directed by A. L. Vijay, starring Vikram, Jagapati Babu, Anushka Shetty, Amy Jackson and Lakshmi Rai. It is produced by UTV Motion Pictures and features music composed by G. V. Prakash Kumar. Wikipedia
Director: A. L. Vijay
Cinematography: Nirav Shah
Production company: UTV Motion Pictures
Genre: Action film
Producers: Ronnie Screwvala, Siddharth Roy Kapur

Format                                   : AVI
Format/Info                              : Audio Video Interleave
File size                                : 741 MiB
Duration                                 : 2h 41mn
Overall bit rate                         : 643 Kbps

Video
ID                                       : 0
Format                                   : MPEG-4 Visual
Format profile                           : Advanced Simple@L5
Format settings, BVOP                    : 2
Format settings, QPel                    : No
Format settings, GMC                     : No warppoints
Format settings, Matrix                  : Default (H.263)
Codec ID                                 : XVID
Codec ID/Hint                            : XviD
Duration                                 : 2h 41mn
Bit rate                                 : 556 Kbps
Width                                    : 608 pixels
Height                                   : 252 pixels
Display aspect ratio                     : 2.40:1
Frame rate                               : 25.000 fps
Color space                              : YUV
Chroma subsampling                       : 4:2:0
Bit depth                                : 8 bits
Scan type                                : Progressive
Compression mode                         : Lossy
Bits/(Pixel*Frame)                       : 0.145
Stream size                              : 642 MiB (87%)
Writing library                          : XviD 1.2.1 (UTC 2008-12-04)

Audio
ID                                       : 1
Format                                   : MPEG Audio
Format version                           : Version 1
Format profile                           : Layer 3
Mode                                     : Joint stereo
Mode extension                           : MS Stereo
Codec ID                                 : 55
Codec ID/Hint                            : MP3
Duration                                 : 2h 41mn
Bit rate mode                            : Constant
Bit rate                                 : 80.0 Kbps
Channel(s)                               : 2 channels
Sampling rate                            : 32.0 KHz
Compression mode                         : Lossy
Stream size                              : 92.3 MiB (12%)